<?xml version="1.0" encoding="UTF-8"?>
<svg id="Camada_2" data-name="Camada 2" xmlns="http://www.w3.org/2000/svg" viewBox="0 0 691.67 120.91">
  <g id="Camada_1-2" data-name="Camada 1">
    <g>
      <g>
        <path d="m.68,118.89c-.45-.45-.68-1.07-.68-1.86V3.88c0-.79.22-1.41.68-1.86.45-.45,1.07-.68,1.86-.68h38.33c8.33,0,15.65,1.49,21.95,4.47,6.3,2.98,11.2,7.18,14.69,12.58,3.49,5.4,5.24,11.65,5.24,18.74v46.44c0,7.09-1.75,13.37-5.24,18.83-3.49,5.46-8.39,9.68-14.69,12.67-6.31,2.98-13.62,4.48-21.95,4.48H2.53c-.79,0-1.41-.22-1.86-.68Zm32.09-26.51l8.27-.17c2.81,0,5.15-1.12,7.01-3.38,1.86-2.25,2.84-5.24,2.96-8.95v-39.01c0-3.72-.93-6.7-2.79-8.95-1.86-2.25-4.31-3.38-7.35-3.38h-8.11c-.68,0-1.01.34-1.01,1.01v61.81c0,.68.34,1.01,1.01,1.01Z" fill="#1a4ae2" stroke-width="0"/>
        <path d="m93.72,118.89c-.45-.45-.68-1.07-.68-1.86V3.88c0-.79.22-1.41.68-1.86.45-.45,1.07-.68,1.86-.68h26.68c.79,0,1.41.23,1.86.68.45.45.68,1.07.68,1.86v113.15c0,.79-.23,1.41-.68,1.86-.45.45-1.07.68-1.86.68h-26.68c-.79,0-1.41-.22-1.86-.68Z" fill="#1a4ae2" stroke-width="0"/>
        <path d="m154.35,116.02c-6.31-3.26-11.2-7.88-14.69-13.85-3.49-5.97-5.24-12.89-5.24-20.77v-42.05c0-7.88,1.74-14.78,5.24-20.69,3.49-5.91,8.38-10.5,14.69-13.76,6.3-3.26,13.62-4.9,21.95-4.9s15.48,1.6,21.78,4.81c6.3,3.21,11.2,7.63,14.69,13.26,3.49,5.63,5.24,11.99,5.24,19.08v2.87c0,.79-.23,1.41-.67,1.86-.45.45-1.07.68-1.86.68h-26.68c-.79,0-1.41-.22-1.86-.68-.45-.45-.68-1.07-.68-1.86v-2.53c0-2.93-.9-5.37-2.7-7.35-1.8-1.97-4.22-2.96-7.26-2.96s-5.49,1.07-7.35,3.21c-1.86,2.14-2.79,4.96-2.79,8.44v43.06c0,3.49,1.04,6.33,3.12,8.53,2.08,2.2,4.64,3.29,7.68,3.29,2.81,0,5.12-.9,6.92-2.7s2.7-4.28,2.7-7.43v-5.07c0-.68-.34-1.01-1.01-1.01h-7.94c-.79,0-1.41-.22-1.86-.67-.45-.45-.68-1.07-.68-1.86v-19.93c0-.79.22-1.41.68-1.86.45-.45,1.07-.68,1.86-.68h37.83c.79,0,1.41.23,1.86.68.45.45.67,1.07.67,1.86v27.19c0,7.66-1.75,14.41-5.24,20.26-3.49,5.86-8.39,10.39-14.69,13.6-6.31,3.21-13.57,4.81-21.78,4.81s-15.65-1.63-21.95-4.9Z" fill="#1a4ae2" stroke-width="0"/>
        <path d="m228.49,118.89c-.45-.45-.67-1.07-.67-1.86V3.88c0-.79.22-1.41.67-1.86.45-.45,1.07-.68,1.86-.68h26.68c.79,0,1.41.23,1.86.68.45.45.67,1.07.67,1.86v113.15c0,.79-.23,1.41-.67,1.86-.45.45-1.07.68-1.86.68h-26.68c-.79,0-1.41-.22-1.86-.68Z" fill="#1a4ae2" stroke-width="0"/>
      </g>
      <g>
        <path d="m275.95,118.88c-.46-.45-.68-1.08-.68-1.88V2.56c0-.79.23-1.42.68-1.88s1.08-.68,1.88-.68h26.99c.8,0,1.42.23,1.88.68.45.46.68,1.08.68,1.88v88.47c0,.68.34,1.02,1.02,1.02h42.87c.79,0,1.42.23,1.88.68.45.46.68,1.08.68,1.88v22.38c0,.8-.23,1.42-.68,1.88-.46.46-1.08.68-1.88.68h-73.44c-.8,0-1.42-.23-1.88-.68Z" fill="#e7eff2" stroke-width="0"/>
        <path d="m363.06,118.88c-.46-.45-.68-1.08-.68-1.88V2.56c0-.79.23-1.42.68-1.88s1.08-.68,1.88-.68h26.99c.8,0,1.42.23,1.88.68.45.46.68,1.08.68,1.88v114.44c0,.8-.23,1.42-.68,1.88-.46.46-1.08.68-1.88.68h-26.99c-.8,0-1.42-.23-1.88-.68Z" fill="#e7eff2" stroke-width="0"/>
        <path d="m478.43,110.93c-7.57,5.75-17.34,8.62-29.29,8.62h-40.99c-.8,0-1.42-.23-1.88-.68-.46-.45-.68-1.08-.68-1.88V2.56c0-.79.23-1.42.68-1.88s1.08-.68,1.88-.68h37.58c27.9,0,41.85,11.22,41.85,33.65,0,10.59-3.76,18.39-11.27,23.4-.68.46-.74.85-.17,1.2,8.99,6.15,13.49,15.14,13.49,26.99.11,11.39-3.62,19.96-11.19,25.71Zm-40.74-82.41v16.91c0,.68.34,1.03,1.02,1.03h7.34c3.3,0,5.81-.83,7.52-2.48,1.71-1.65,2.56-4.01,2.56-7.09,0-6.26-3.36-9.39-10.08-9.39h-7.34c-.68,0-1.02.34-1.02,1.03Zm17.25,60.8c1.71-1.82,2.56-4.44,2.56-7.86s-.83-5.89-2.48-7.77c-1.65-1.88-4.01-2.82-7.09-2.82h-9.22c-.68,0-1.02.34-1.02,1.02v19.13c0,.68.34,1.02,1.02,1.02h9.05c3.07,0,5.47-.91,7.17-2.73Z" fill="#e7eff2" stroke-width="0"/>
        <path d="m551.44,117.51l-14.52-43.04c-.11-.57-.51-.85-1.2-.85h-3.07c-.68,0-1.03.34-1.03,1.03v42.36c0,.8-.23,1.42-.68,1.88s-1.08.68-1.88.68h-26.99c-.8,0-1.43-.23-1.88-.68-.46-.45-.68-1.08-.68-1.88V2.56c0-.79.23-1.42.68-1.88.45-.45,1.08-.68,1.88-.68h45.09c7.29,0,13.72,1.6,19.3,4.78,5.58,3.19,9.91,7.66,12.98,13.41,3.07,5.75,4.61,12.38,4.61,19.9,0,6.95-1.45,13.07-4.36,18.36-2.9,5.29-6.97,9.42-12.21,12.38-.46.34-.63.8-.51,1.37l17.59,46.46c.11.34.17.74.17,1.2,0,1.14-.74,1.71-2.22,1.71h-28.18c-1.48,0-2.45-.68-2.9-2.05Zm-19.81-88.99v19.64c0,.68.34,1.03,1.03,1.03h9.05c3.07,0,5.58-.97,7.52-2.9s2.9-4.55,2.9-7.86-.94-6.09-2.82-8.03c-1.88-1.93-4.41-2.9-7.6-2.9h-9.05c-.68,0-1.03.34-1.03,1.03Z" fill="#e7eff2" stroke-width="0"/>
        <path d="m658.02,117.34l-2.9-13.15c-.23-.57-.57-.85-1.02-.85h-25.62c-.46,0-.8.29-1.02.85l-2.73,13.15c-.34,1.48-1.31,2.22-2.9,2.22h-28.01c-.91,0-1.57-.26-1.96-.77-.4-.51-.49-1.22-.26-2.13l30.4-114.44c.34-1.48,1.25-2.22,2.73-2.22h33.82c1.48,0,2.39.74,2.73,2.22l30.23,114.44c.11.23.17.51.17.85,0,1.37-.8,2.05-2.39,2.05h-28.35c-1.6,0-2.56-.74-2.9-2.22Zm-25.11-39.45c0,.57.34.85,1.03.85h14.52c.8,0,1.14-.4,1.03-1.2l-7.69-35.53c-.11-.45-.34-.68-.68-.68s-.57.23-.68.68l-7.52,35.53v.34Z" fill="#e7eff2" stroke-width="0"/>
      </g>
    </g>
  </g>
</svg>