<?xml version="1.0" encoding="UTF-8"?>
<svg id="Camada_2" data-name="Camada 2" xmlns="http://www.w3.org/2000/svg" viewBox="0 0 79.12 87.87">
  <g id="Camada_1-2" data-name="Camada 1">
    <path d="m1.49,60.5c.33-3.12-.13-6.14-.93-9.14-.64-2.4-.68-4.87-.39-7.35.6-4.99,3.48-7.81,8.53-7.94,1.61-.04,2.87-.19,3.86-1.54.35-.48.91-1.05,1.43-1.12,5.31-.67,9.81-4.07,14.99-4.71,2.88-.35,3.13-1.36,3.02-3.61-.24-5.05-.3-10.11-.52-15.16-.25-5.65,1.89-9.1,6.23-9.82,4.52-.75,8.71,2.3,9.57,7.72,1.61,10.13,1.3,20.41,2.01,30.62.15,2.21.03,4.45.29,6.65.43,3.56,2.1,4.48,5.36,3,3.25-1.47,6.38-3.25,9.92-3.99,6.36-1.34,11.91,1.08,13.62,5.92,1.64,4.66,0,8.42-4.65,9.94-7.82,2.57-13.88,7.45-18.57,14.02-10.48,14.69-24.2,16.01-39.46,11.73-9.32-2.61-12.77-11.27-14.04-20.44-.22-1.58-.19-3.2-.28-4.8Zm36-13.89c.08,7.24-1.48,10.9-5.35,11.29-4.62.46-9.4-.69-13.85,1.58-.41.21-1.22-.17-1.75-.45-1.65-.89-3.08-1.05-4.69.3-.76.64-2.19,1.03-3.14.8-4.56-1.1-3.81,1.97-3.48,4.41.31,2.3.88,4.61,1.66,6.8,2.37,6.64,6.78,11,13.99,12.22,12.66,2.14,23.45-.51,31.33-11.5,4.99-6.96,11.24-12.42,19.67-14.94,1.82-.54,3.59-1.23,3.78-3.51.2-2.37-1.09-4-2.94-5.2-2.08-1.35-4.42-1.69-6.75-.89-3.03,1.03-6.01,2.21-8.97,3.45-6.89,2.88-10.59.43-10.92-7.09-.45-10.35-1-20.7-1.61-31.04-.14-2.44-.35-4.95-1.69-7.13-1-1.62-2.5-2.45-4.38-2.12-1.93.34-2.94,1.72-3.17,3.61-.12.97-.07,1.97-.07,2.95.03,12.72.82,25.39,2.35,36.46Zm-3.37-.23c-.23-2.44-.43-6.14-.96-9.79-.37-2.52-1.31-5.06-4.63-4.58-3.1.44-4.29,2.65-4.09,5.62.24,3.57.53,7.13.87,10.69.46,4.91,2.12,7.23,4.9,6.99,2.75-.24,4.2-3.03,3.91-8.92Zm-11.85,4.45c-.29-3.45-.6-7.48-.99-11.5-.17-1.75.17-3.99-2.66-3.9-2.53.09-4.4,1.54-4.66,3.91-.52,4.64-.2,9.32,1.46,13.76.73,1.97,2.09,3.52,4.44,2.93,2.31-.58,2.88-2.43,2.41-5.2Zm-18.7-3c.1,1.63.32,4.22,1.49,6.55.88,1.76,2.39,2.96,4.49,2.25,2.06-.69,2.54-2.29,2.18-4.43-.55-3.25-.84-6.56-1.2-9.84-.12-1.06.25-2.35-1.12-2.83-1.39-.49-2.71-.07-3.72.93-1.79,1.75-2.19,4.02-2.1,7.37Z" fill="#1a4ae2" stroke-width="0"/>
  </g>
</svg>